<svg width="1920" height="1080" viewBox="0 0 1920 1080" fill="none" xmlns="http://www.w3.org/2000/svg">
<mask id="mask0_221_527" style="mask-type:alpha" maskUnits="userSpaceOnUse" x="0" y="0" width="1920" height="1080">
<rect width="1920" height="1080" transform="matrix(-1 0 0 1 1920 0)" fill="white"/>
</mask>
<g mask="url(#mask0_221_527)">
<g opacity="0.4" filter="url(#filter0_f_221_527)">
<path d="M996.489 752.032C1153.6 911.4 1643.36 1110.38 1802.72 953.262C1870.45 833.166 1668.34 771.865 1567.43 424.049C1476.96 144.215 1119.71 101.457 960.344 258.573C800.976 415.688 839.373 592.664 996.489 752.032Z" fill="url(#paint0_linear_221_527)"/>
</g>
<g opacity="0.4" filter="url(#filter1_f_221_527)">
<path d="M820.143 767.369C710.343 866.66 379.371 979.502 280.08 869.703C180.789 759.904 366.547 613.988 438.27 511.792C511.811 373.435 763.424 333.061 862.715 442.86C962.007 552.659 929.942 668.077 820.143 767.369Z" fill="url(#paint1_linear_221_527)"/>
</g>
<g opacity="0.15" filter="url(#filter2_f_221_527)">
<path d="M119.37 162.208C46.9356 200.345 -95.0742 413.207 -44.9106 508.483C5.25297 603.76 146.734 491.406 215.687 477.865C305.844 474.207 363.37 329.809 313.206 234.532C263.043 139.255 191.805 124.071 119.37 162.208Z" fill="url(#paint2_radial_221_527)"/>
</g>
<g opacity="0.7" filter="url(#filter3_f_221_527)">
<path d="M1245.15 643.972C1195.5 641.043 1054.78 707.106 1050.92 772.408C1047.07 837.711 1133.52 865.608 1173.63 880.233C1262.49 890.345 1319.36 807.784 1323.21 742.482C1327.06 677.179 1294.79 646.901 1245.15 643.972Z" fill="url(#paint3_radial_221_527)"/>
</g>
</g>
<defs>
<filter id="filter0_f_221_527" x="514.104" y="-175.913" width="1646.22" height="1530.47" filterUnits="userSpaceOnUse" color-interpolation-filters="sRGB">
<feFlood flood-opacity="0" result="BackgroundImageFix"/>
<feBlend mode="normal" in="SourceGraphic" in2="BackgroundImageFix" result="shape"/>
<feGaussianBlur stdDeviation="172" result="effect1_foregroundBlur_221_527"/>
</filter>
<filter id="filter1_f_221_527" x="-42.4873" y="85.8207" width="1258.79" height="1123" filterUnits="userSpaceOnUse" color-interpolation-filters="sRGB">
<feFlood flood-opacity="0" result="BackgroundImageFix"/>
<feBlend mode="normal" in="SourceGraphic" in2="BackgroundImageFix" result="shape"/>
<feGaussianBlur stdDeviation="147" result="effect1_foregroundBlur_221_527"/>
</filter>
<filter id="filter2_f_221_527" x="-159.409" y="38.8342" width="595.227" height="611.631" filterUnits="userSpaceOnUse" color-interpolation-filters="sRGB">
<feFlood flood-opacity="0" result="BackgroundImageFix"/>
<feBlend mode="normal" in="SourceGraphic" in2="BackgroundImageFix" result="shape"/>
<feGaussianBlur stdDeviation="52" result="effect1_foregroundBlur_221_527"/>
</filter>
<filter id="filter3_f_221_527" x="880.8" y="473.878" width="612.722" height="577.201" filterUnits="userSpaceOnUse" color-interpolation-filters="sRGB">
<feFlood flood-opacity="0" result="BackgroundImageFix"/>
<feBlend mode="normal" in="SourceGraphic" in2="BackgroundImageFix" result="shape"/>
<feGaussianBlur stdDeviation="85" result="effect1_foregroundBlur_221_527"/>
</filter>
<linearGradient id="paint0_linear_221_527" x1="1554.47" y1="315.647" x2="1196.9" y2="1023.27" gradientUnits="userSpaceOnUse">
<stop stop-color="#DEFF98"/>
<stop offset="0.81" stop-color="#FF6ED6"/>
</linearGradient>
<linearGradient id="paint1_linear_221_527" x1="756.5" y1="600.5" x2="335.14" y2="909.958" gradientUnits="userSpaceOnUse">
<stop stop-color="#FFF598"/>
<stop offset="1" stop-color="#ACEAFF"/>
</linearGradient>
<radialGradient id="paint2_radial_221_527" cx="0" cy="0" r="1" gradientUnits="userSpaceOnUse" gradientTransform="translate(338.263 255.529) rotate(158.603) scale(284.765 414.152)">
<stop stop-color="white"/>
<stop offset="1" stop-color="#AAE0FF"/>
</radialGradient>
<radialGradient id="paint3_radial_221_527" cx="0" cy="0" r="1" gradientUnits="userSpaceOnUse" gradientTransform="translate(1205.08 747.889) rotate(-121.875) scale(99.4208 144.594)">
<stop stop-color="#F36BFF"/>
<stop offset="1" stop-color="#FBF5FE"/>
</radialGradient>
</defs>
</svg>
