<svg width="1920" height="1080" viewBox="0 0 1920 1080" fill="none" xmlns="http://www.w3.org/2000/svg">
<mask id="mask0_153_370" style="mask-type:alpha" maskUnits="userSpaceOnUse" x="0" y="0" width="1920" height="1080">
<rect width="1920" height="1080" fill="white"/>
</mask>
<g mask="url(#mask0_153_370)">
<g opacity="0.4" filter="url(#filter0_f_153_370)">
<path d="M1069.51 765.032C912.394 924.4 422.643 1123.38 263.275 966.262C195.551 846.166 397.658 784.865 498.569 437.049C589.04 157.215 946.287 114.457 1105.66 271.573C1265.02 428.688 1226.63 605.664 1069.51 765.032Z" fill="url(#paint0_linear_153_370)"/>
</g>
<g opacity="0.4" filter="url(#filter1_f_153_370)">
<path d="M1135.86 830.369C1245.66 929.66 1576.63 1042.5 1675.92 932.703C1775.21 822.904 1589.45 676.988 1517.73 574.792C1444.19 436.435 1192.58 396.061 1093.28 505.86C993.993 615.659 1026.06 731.077 1135.86 830.369Z" fill="url(#paint1_linear_153_370)"/>
</g>
<g opacity="0.15" filter="url(#filter2_f_153_370)">
<path d="M-48.2522 243.347C-35.3346 291.373 71.8292 403.991 135 387C198.171 370.009 150.5 271.142 151.694 228.467C161.579 174.548 83.6947 121.151 20.5239 138.142C-42.6469 155.133 -61.1698 195.321 -48.2522 243.347Z" fill="url(#paint2_radial_153_370)"/>
</g>
<g opacity="0.7" filter="url(#filter3_f_153_370)">
<path d="M671.585 637.972C721.232 635.043 861.953 701.106 865.806 766.408C869.658 831.711 783.209 859.608 743.101 874.233C654.24 884.345 597.372 801.784 593.52 736.482C589.668 671.179 621.938 640.901 671.585 637.972Z" fill="url(#paint3_radial_153_370)"/>
</g>
</g>
<defs>
<filter id="filter0_f_153_370" x="-94.3223" y="-162.913" width="1646.22" height="1530.47" filterUnits="userSpaceOnUse" color-interpolation-filters="sRGB">
<feFlood flood-opacity="0" result="BackgroundImageFix"/>
<feBlend mode="normal" in="SourceGraphic" in2="BackgroundImageFix" result="shape"/>
<feGaussianBlur stdDeviation="172" result="effect1_foregroundBlur_153_370"/>
</filter>
<filter id="filter1_f_153_370" x="739.701" y="148.821" width="1258.79" height="1123" filterUnits="userSpaceOnUse" color-interpolation-filters="sRGB">
<feFlood flood-opacity="0" result="BackgroundImageFix"/>
<feBlend mode="normal" in="SourceGraphic" in2="BackgroundImageFix" result="shape"/>
<feGaussianBlur stdDeviation="147" result="effect1_foregroundBlur_153_370"/>
</filter>
<filter id="filter2_f_153_370" x="-156.125" y="30.9306" width="427.947" height="461.799" filterUnits="userSpaceOnUse" color-interpolation-filters="sRGB">
<feFlood flood-opacity="0" result="BackgroundImageFix"/>
<feBlend mode="normal" in="SourceGraphic" in2="BackgroundImageFix" result="shape"/>
<feGaussianBlur stdDeviation="52" result="effect1_foregroundBlur_153_370"/>
</filter>
<filter id="filter3_f_153_370" x="423.209" y="467.878" width="612.722" height="577.201" filterUnits="userSpaceOnUse" color-interpolation-filters="sRGB">
<feFlood flood-opacity="0" result="BackgroundImageFix"/>
<feBlend mode="normal" in="SourceGraphic" in2="BackgroundImageFix" result="shape"/>
<feGaussianBlur stdDeviation="85" result="effect1_foregroundBlur_153_370"/>
</filter>
<linearGradient id="paint0_linear_153_370" x1="511.533" y1="328.647" x2="869.095" y2="1036.27" gradientUnits="userSpaceOnUse">
<stop offset="0.19" stop-color="#FF6ED6"/>
<stop offset="1" stop-color="#B398FF"/>
</linearGradient>
<linearGradient id="paint1_linear_153_370" x1="1227.73" y1="1023.09" x2="1620.86" y2="972.958" gradientUnits="userSpaceOnUse">
<stop stop-color="#81D9FF"/>
<stop offset="1" stop-color="#FFD66B"/>
</linearGradient>
<radialGradient id="paint2_radial_153_370" cx="0" cy="0" r="1" gradientUnits="userSpaceOnUse" gradientTransform="translate(9.71957 341.301) rotate(18.0437) scale(79.3512 115.405)">
<stop stop-color="#6BCAFF"/>
<stop offset="0.965" stop-color="#C2FF74"/>
</radialGradient>
<radialGradient id="paint3_radial_153_370" cx="0" cy="0" r="1" gradientUnits="userSpaceOnUse" gradientTransform="translate(711.647 741.889) rotate(-58.1255) scale(99.4208 144.594)">
<stop stop-color="#B56BFF"/>
<stop offset="1" stop-color="#FBF5FE"/>
</radialGradient>
</defs>
</svg>
