<svg width="1920" height="1080" viewBox="0 0 1920 1080" fill="none" xmlns="http://www.w3.org/2000/svg">
<mask id="mask0_153_371" style="mask-type:alpha" maskUnits="userSpaceOnUse" x="0" y="0" width="1920" height="1080">
<rect width="1920" height="1080" fill="white"/>
</mask>
<g mask="url(#mask0_153_371)">
<g opacity="0.4" filter="url(#filter0_f_153_371)">
<path d="M963.67 678.71C832.439 859.989 378.378 1130.69 197.099 999.456C112.005 890.972 302.529 799.836 349.724 440.765C396.872 150.473 743.556 54.2243 924.835 185.455C1106.11 316.685 1094.9 497.43 963.67 678.71Z" fill="url(#paint0_linear_153_371)"/>
</g>
<g opacity="0.4" filter="url(#filter1_f_153_371)">
<path d="M1079.86 753.369C1189.66 852.66 1520.63 965.502 1619.92 855.703C1719.21 745.904 1533.45 599.988 1461.73 497.792C1388.19 359.435 1136.58 319.061 1037.28 428.86C937.993 538.659 970.058 654.077 1079.86 753.369Z" fill="url(#paint1_linear_153_371)"/>
</g>
<g opacity="0.15" filter="url(#filter2_f_153_371)">
<path d="M448.771 314.488C414.075 278.857 265.601 232.789 218.734 278.426C171.867 324.063 261.695 387.136 281.461 424.976C299.122 476.87 393.157 485.512 440.024 439.875C486.891 394.238 483.467 350.119 448.771 314.488Z" fill="url(#paint2_radial_153_371)"/>
</g>
<g opacity="0.5" filter="url(#filter3_f_153_371)">
<path d="M624.024 634.654C676.757 631.544 826.451 705.53 830.742 778.256C835.032 850.982 743.278 881.785 700.714 897.948C606.344 908.939 545.681 816.834 541.391 744.108C537.101 671.382 571.291 637.765 624.024 634.654Z" fill="url(#paint3_radial_153_371)"/>
</g>
</g>
<defs>
<filter id="filter0_f_153_371" x="-168.506" y="-216.153" width="1574.18" height="1594.29" filterUnits="userSpaceOnUse" color-interpolation-filters="sRGB">
<feFlood flood-opacity="0" result="BackgroundImageFix"/>
<feBlend mode="normal" in="SourceGraphic" in2="BackgroundImageFix" result="shape"/>
<feGaussianBlur stdDeviation="172" result="effect1_foregroundBlur_153_371"/>
</filter>
<filter id="filter1_f_153_371" x="683.701" y="71.8207" width="1258.79" height="1123" filterUnits="userSpaceOnUse" color-interpolation-filters="sRGB">
<feFlood flood-opacity="0" result="BackgroundImageFix"/>
<feBlend mode="normal" in="SourceGraphic" in2="BackgroundImageFix" result="shape"/>
<feGaussianBlur stdDeviation="147" result="effect1_foregroundBlur_153_371"/>
</filter>
<filter id="filter2_f_153_371" x="5.36133" y="59.3551" width="669.654" height="610.175" filterUnits="userSpaceOnUse" color-interpolation-filters="sRGB">
<feFlood flood-opacity="0" result="BackgroundImageFix"/>
<feBlend mode="normal" in="SourceGraphic" in2="BackgroundImageFix" result="shape"/>
<feGaussianBlur stdDeviation="100" result="effect1_foregroundBlur_153_371"/>
</filter>
<filter id="filter3_f_153_371" x="371.028" y="464.559" width="629.858" height="604.286" filterUnits="userSpaceOnUse" color-interpolation-filters="sRGB">
<feFlood flood-opacity="0" result="BackgroundImageFix"/>
<feBlend mode="normal" in="SourceGraphic" in2="BackgroundImageFix" result="shape"/>
<feGaussianBlur stdDeviation="85" result="effect1_foregroundBlur_153_371"/>
</filter>
<linearGradient id="paint0_linear_153_371" x1="671.22" y1="269.487" x2="492.302" y2="970.251" gradientUnits="userSpaceOnUse">
<stop stop-color="#FFF06E"/>
<stop offset="1" stop-color="#FFBD5B"/>
</linearGradient>
<linearGradient id="paint1_linear_153_371" x1="1228" y1="559" x2="1564.86" y2="895.958" gradientUnits="userSpaceOnUse">
<stop stop-color="#B4FFA8"/>
<stop offset="1" stop-color="#6BA6FF"/>
</linearGradient>
<radialGradient id="paint2_radial_153_371" cx="0" cy="0" r="1" gradientUnits="userSpaceOnUse" gradientTransform="translate(412 477) rotate(-115.917) scale(217.36 316.12)">
<stop stop-color="white"/>
<stop offset="0.965" stop-color="#FC74FF"/>
</radialGradient>
<radialGradient id="paint3_radial_153_371" cx="0" cy="0" r="1" gradientUnits="userSpaceOnUse" gradientTransform="translate(666.898 750.487) rotate(-59.394) scale(109.044 155.948)">
<stop stop-color="#FF976B"/>
<stop offset="1" stop-color="#FBF5FE"/>
</radialGradient>
</defs>
</svg>
