<svg width="60" height="60" viewBox="0 0 60 60" fill="none" xmlns="http://www.w3.org/2000/svg">
<g id="Group 36">
<circle id="Ellipse 22" cx="30" cy="30" r="30" fill="black" fill-opacity="0.4"/>
<path id="Vector" d="M25.5 17V18.5H18V21.5H19.5V41C19.5 41.7956 19.8161 42.5587 20.3787 43.1213C20.9413 43.6839 21.7044 44 22.5 44H37.5C38.2956 44 39.0587 43.6839 39.6213 43.1213C40.1839 42.5587 40.5 41.7956 40.5 41V21.5H42V18.5H34.5V17H25.5ZM22.5 21.5H37.5V41H22.5V21.5ZM25.5 24.5V38H28.5V24.5H25.5ZM31.5 24.5V38H34.5V24.5H31.5Z" fill="white"/>
</g>
</svg>
